<svg width="24" height="24" viewBox="0 0 24 24" fill="none" xmlns="http://www.w3.org/2000/svg">
<g id="icon-close-x">
<g id="g-line-1">
<path id="p-line" d="M5.63604 7.05024C5.24713 6.66134 5.24713 6.02494 5.63604 5.63603C6.02495 5.24712 6.66135 5.24712 7.05025 5.63603L18.364 16.9497C18.7529 17.3386 18.7529 17.975 18.364 18.364C17.9751 18.7529 17.3387 18.7529 16.9497 18.364L5.63604 7.05024Z" fill="black"/>
</g>
<g id="g-line-2">
<path id="p-line_2" d="M7.05025 18.364L18.364 7.05026C18.7529 6.66135 18.7529 6.02495 18.364 5.63605C17.9751 5.24714 17.3387 5.24714 16.9497 5.63605L5.63604 16.9498C5.24713 17.3387 5.24713 17.9751 5.63604 18.364C6.02495 18.7529 6.66134 18.7529 7.05025 18.364Z" fill="black"/>
</g>
</g>
</svg>
