<svg width="24" height="24" viewBox="0 0 24 24" fill="none" xmlns="http://www.w3.org/2000/svg">
<g id="icon-menu--normal">
<g id="g-line-1">
<path id="p-line" d="M4 8C3.45 8 3 7.55 3 7C3 6.45 3.45 6 4 6H20C20.55 6 21 6.45 21 7C21 7.55 20.55 8 20 8H4Z" fill="black"/>
</g>
<g id="g-line-2">
<path id="p-line_2" d="M20 13H4C3.45 13 3 12.55 3 12C3 11.45 3.45 11 4 11H20C20.55 11 21 11.45 21 12C21 12.55 20.55 13 20 13Z" fill="black"/>
</g>
<g id="g-line-3">
<path id="p-line_3" d="M4 18H20C20.55 18 21 17.55 21 17C21 16.45 20.55 16 20 16H4C3.45 16 3 16.45 3 17C3 17.55 3.45 18 4 18Z" fill="black"/>
</g>
</g>
</svg>
