<svg width="24" height="24" viewBox="0 0 24 24" fill="none" xmlns="http://www.w3.org/2000/svg">
<g id="icon-mode--normal">
<g id="g-eye">
<g id="p-eye-1">
<g id="p-eye">
<mask id="path-1-inside-1_201_983" fill="white">
<path d="M12 4.5C7 4.5 2.73 7.61 1 12C2.73 16.39 7 19.5 12 19.5C17 19.5 21.27 16.39 23 12C21.27 7.61 17 4.5 12 4.5Z"/>
</mask>
<path d="M12 4.5C7 4.5 2.73 7.61 1 12C2.73 16.39 7 19.5 12 19.5C17 19.5 21.27 16.39 23 12C21.27 7.61 17 4.5 12 4.5Z" stroke="black" stroke-width="3.2" mask="url(#path-1-inside-1_201_983)"/>
</g>
</g>
<g id="p-eye-2">
<g id="p-eye_2">
<mask id="path-2-inside-2_201_983" fill="white">
<path d="M12 4.5C7 4.5 2.73 7.61 1 12C2.73 16.39 7 19.5 12 19.5C17 19.5 21.27 16.39 23 12C21.27 7.61 17 4.5 12 4.5Z"/>
</mask>
<path d="M12 4.5C7 4.5 2.73 7.61 1 12C2.73 16.39 7 19.5 12 19.5C17 19.5 21.27 16.39 23 12C21.27 7.61 17 4.5 12 4.5Z" stroke="black" stroke-width="3.2" mask="url(#path-2-inside-2_201_983)"/>
</g>
</g>
<g id="p-eye-3">
<g id="p-eye_3">
<mask id="path-3-inside-3_201_983" fill="white">
<path d="M12 4.5C7 4.5 2.73 7.61 1 12C2.73 16.39 7 19.5 12 19.5C17 19.5 21.27 16.39 23 12C21.27 7.61 17 4.5 12 4.5Z"/>
</mask>
<path d="M12 4.5C7 4.5 2.73 7.61 1 12C2.73 16.39 7 19.5 12 19.5C17 19.5 21.27 16.39 23 12C21.27 7.61 17 4.5 12 4.5Z" stroke="black" stroke-width="3.2" mask="url(#path-3-inside-3_201_983)"/>
</g>
</g>
<g id="p-eye-4">
<g id="p-eye_4">
<mask id="path-4-inside-4_201_983" fill="white">
<path d="M12 4.5C7 4.5 2.73 7.61 1 12C2.73 16.39 7 19.5 12 19.5C17 19.5 21.27 16.39 23 12C21.27 7.61 17 4.5 12 4.5Z"/>
</mask>
<path d="M12 4.5C7 4.5 2.73 7.61 1 12C2.73 16.39 7 19.5 12 19.5C17 19.5 21.27 16.39 23 12C21.27 7.61 17 4.5 12 4.5Z" stroke="black" stroke-width="3.2" mask="url(#path-4-inside-4_201_983)"/>
</g>
</g>
</g>
<g id="g-cover">
<circle id="p-cover" cx="12" cy="12" r="1" fill="white"/>
</g>
<g id="g-pupil">
<g id="p-pupil">
<mask id="path-6-inside-5_201_983" fill="white">
<path d="M16 12C16 14.2091 14.2091 16 12 16C9.79086 16 8 14.2091 8 12C8 9.79086 9.79086 8 12 8C14.2091 8 16 9.79086 16 12Z"/>
</mask>
<path d="M16 12C16 14.2091 14.2091 16 12 16C9.79086 16 8 14.2091 8 12C8 9.79086 9.79086 8 12 8C14.2091 8 16 9.79086 16 12Z" stroke="black" stroke-width="3.2" mask="url(#path-6-inside-5_201_983)"/>
</g>
</g>
<g id="g-moon">
<g id="p-moon">
<mask id="path-7-inside-6_201_983" fill="white">
<path d="M12.083 9C12.6441 9 13.1713 9.15 13.6245 9.405C12.7027 9.924 12.083 10.89 12.083 12C12.083 13.11 12.7027 14.076 13.6245 14.595C13.1713 14.85 12.6441 15 12.083 15C10.3812 15 9 13.656 9 12C9 10.344 10.3812 9 12.083 9Z"/>
</mask>
<path d="M12.083 9C12.6441 9 13.1713 9.15 13.6245 9.405C12.7027 9.924 12.083 10.89 12.083 12C12.083 13.11 12.7027 14.076 13.6245 14.595C13.1713 14.85 12.6441 15 12.083 15C10.3812 15 9 13.656 9 12C9 10.344 10.3812 9 12.083 9Z" stroke="black" stroke-width="3.2" mask="url(#path-7-inside-6_201_983)"/>
</g>
</g>
</g>
</svg>
