<svg width="322" height="336" viewBox="0 0 322 336" fill="none" xmlns="http://www.w3.org/2000/svg">
<g id="idas-fig-2">
<g id="g-border">
<path id="p-border" d="M321 174.979C321 182.437 306.312 188.759 305.297 195.94C304.255 203.294 316.584 213.522 314.554 220.509C312.497 227.613 296.637 229.511 293.626 236.138C290.616 242.765 299.537 256.219 295.615 262.348C291.693 268.476 275.921 265.81 271.163 271.35C266.404 276.889 271.265 292.269 265.78 297.088C260.294 301.908 245.942 294.845 239.805 298.827C233.668 302.808 234.134 318.908 227.462 321.983C220.79 325.057 209.099 314.165 202.091 316.249C195.179 318.326 191.065 333.879 183.776 334.946C176.672 335.97 168.402 322.197 161.01 322.197C153.618 322.197 145.342 335.95 138.238 334.925C130.956 333.879 126.841 318.306 119.923 316.228C112.887 314.151 101.1 325.002 94.5513 321.962C88.0028 318.922 88.3182 302.774 82.2085 298.806C76.0989 294.838 61.7264 301.873 56.2408 297.068C50.7551 292.262 55.6236 276.903 50.8511 271.35C46.0785 265.796 30.3552 268.517 26.4055 262.348C22.4559 256.178 31.4318 242.855 28.3941 236.145C25.3564 229.435 9.50281 227.613 7.43882 220.53C5.41598 213.543 17.7245 203.315 16.7028 195.961C15.6879 188.78 1 182.458 1 175C1 167.542 15.6879 161.213 16.7028 154.032C17.7382 146.678 5.41598 136.45 7.43882 129.47C9.49595 122.359 25.3633 120.468 28.3735 113.842C31.3838 107.215 22.4627 93.76 26.385 87.6317C30.3072 81.5034 46.0717 84.1694 50.8305 78.6297C55.5893 73.0899 50.7208 57.7311 56.2202 52.9115C61.7196 48.092 76.0578 55.162 82.1949 51.1734C88.332 47.1848 87.8657 31.092 94.5376 28.0174C101.21 24.9429 112.901 35.8353 119.909 33.751C126.828 31.6736 130.942 16.1209 138.224 15.0545C145.335 14.0296 153.605 27.8028 160.99 27.8028C168.375 27.8028 176.651 14.0296 183.755 15.0545C191.044 16.1001 195.159 31.6736 202.071 33.751C209.113 35.8284 220.9 24.9775 227.442 28.0174C233.983 31.0573 233.668 47.2056 239.785 51.1734C245.901 55.1413 260.294 48.0573 265.78 52.8631C271.265 57.6688 266.397 73.0276 271.163 78.5812C275.928 84.1348 291.665 81.4134 295.615 87.5833C299.565 93.7531 290.582 107.076 293.626 113.793C296.671 120.51 312.49 122.31 314.554 129.422C316.611 136.402 304.269 146.63 305.297 153.984C306.312 161.192 321 167.514 321 174.979Z" stroke="black" stroke-width="2" stroke-miterlimit="10"/>
</g>
<g id="g-arrows1">
<path id="p-line1" d="M162.5 50.001C162.5 49.4487 162.052 49.001 161.5 49.001C160.948 49.001 160.5 49.4487 160.5 50.001L162.5 50.001ZM160.793 106.692C161.183 107.083 161.817 107.083 162.207 106.692L168.571 100.328C168.962 99.9376 168.962 99.3044 168.571 98.9139C168.181 98.5234 167.547 98.5234 167.157 98.9139L161.5 104.571L155.843 98.9139C155.453 98.5234 154.819 98.5234 154.429 98.9139C154.038 99.3044 154.038 99.9376 154.429 100.328L160.793 106.692ZM160.5 50.001L160.5 105.985L162.5 105.985L162.5 50.001L160.5 50.001Z" fill="black"/>
<path id="p-line2" d="M286.002 175.518C286.554 175.518 287.002 175.07 287.002 174.518C287.002 173.965 286.554 173.518 286.002 173.518L286.002 175.518ZM227.526 173.81C227.136 174.201 227.136 174.834 227.526 175.225L233.89 181.589C234.281 181.979 234.914 181.979 235.305 181.589C235.695 181.198 235.695 180.565 235.305 180.174L229.648 174.518L235.305 168.861C235.695 168.47 235.695 167.837 235.305 167.447C234.914 167.056 234.281 167.056 233.89 167.447L227.526 173.81ZM286.002 173.518L228.234 173.518L228.234 175.518L286.002 175.518L286.002 173.518Z" fill="black"/>
<path id="p-line3" d="M160.5 299.999C160.5 300.551 160.948 300.999 161.5 300.999C162.052 300.999 162.5 300.551 162.5 299.999L160.5 299.999ZM162.207 243.308C161.817 242.917 161.183 242.917 160.793 243.308L154.429 249.672C154.038 250.062 154.038 250.696 154.429 251.086C154.819 251.477 155.453 251.477 155.843 251.086L161.5 245.429L167.157 251.086C167.547 251.477 168.181 251.477 168.571 251.086C168.962 250.696 168.962 250.062 168.571 249.672L162.207 243.308ZM162.5 299.999L162.5 244.015L160.5 244.015L160.5 299.999L162.5 299.999Z" fill="black"/>
<path id="p-line4" d="M36.002 173.518C35.4497 173.518 35.002 173.965 35.002 174.518C35.002 175.07 35.4497 175.518 36.002 175.518V173.518ZM94.4775 175.225C94.868 174.834 94.868 174.201 94.4775 173.81L88.1135 167.447C87.723 167.056 87.0898 167.056 86.6993 167.447C86.3088 167.837 86.3088 168.47 86.6993 168.861L92.3561 174.518L86.6993 180.174C86.3088 180.565 86.3088 181.198 86.6993 181.589C87.0898 181.979 87.723 181.979 88.1135 181.589L94.4775 175.225ZM36.002 175.518L93.7703 175.518V173.518L36.002 173.518V175.518Z" fill="black"/>
</g>
<g id="g-arrows2">
<path id="p-line1_2" d="M230.84 106.412C230.84 105.722 230.28 105.162 229.59 105.162L218.34 105.162C217.649 105.162 217.09 105.722 217.09 106.412C217.09 107.102 217.649 107.662 218.34 107.662L228.34 107.662L228.34 117.662C228.34 118.352 228.899 118.912 229.59 118.912C230.28 118.912 230.84 118.352 230.84 117.662L230.84 106.412ZM200.805 133.429C200.317 133.917 200.317 134.709 200.805 135.197C201.293 135.685 202.085 135.685 202.573 135.197L200.805 133.429ZM228.706 105.528L200.805 133.429L202.573 135.197L230.474 107.296L228.706 105.528Z" fill="black"/>
<path id="p-line2_2" d="M229.588 244.84C230.278 244.84 230.838 244.28 230.838 243.59L230.838 232.34C230.838 231.649 230.278 231.09 229.588 231.09C228.898 231.09 228.338 231.649 228.338 232.34L228.338 242.34L218.338 242.34C217.648 242.34 217.088 242.899 217.088 243.59C217.088 244.28 217.648 244.84 218.338 244.84L229.588 244.84ZM202.571 214.805C202.083 214.317 201.291 214.317 200.803 214.805C200.315 215.293 200.315 216.085 200.803 216.573L202.571 214.805ZM230.472 242.706L202.571 214.805L200.803 216.573L228.704 244.474L230.472 242.706Z" fill="black"/>
<path id="p-line3_2" d="M91.1602 243.59C91.1602 244.28 91.7198 244.84 92.4102 244.84H103.66C104.351 244.84 104.91 244.28 104.91 243.59C104.91 242.899 104.351 242.34 103.66 242.34H93.6602V232.34C93.6602 231.649 93.1005 231.09 92.4102 231.09C91.7198 231.09 91.1602 231.649 91.1602 232.34V243.59ZM121.195 216.573C121.683 216.085 121.683 215.293 121.195 214.805C120.707 214.317 119.915 214.317 119.427 214.805L121.195 216.573ZM93.294 244.474L121.195 216.573L119.427 214.805L91.5263 242.706L93.294 244.474Z" fill="black"/>
<path id="p-line4_2" d="M92.4102 105.16C91.7198 105.16 91.1602 105.72 91.1602 106.41L91.1602 117.66C91.1602 118.351 91.7198 118.91 92.4102 118.91C93.1005 118.91 93.6602 118.351 93.6602 117.66L93.6602 107.66L103.66 107.66C104.351 107.66 104.91 107.101 104.91 106.41C104.91 105.72 104.351 105.16 103.66 105.16L92.4102 105.16ZM119.427 135.195C119.915 135.683 120.707 135.683 121.195 135.195C121.683 134.707 121.683 133.915 121.195 133.427L119.427 135.195ZM91.5263 107.294L119.427 135.195L121.195 133.427L93.294 105.526L91.5263 107.294Z" fill="black"/>
</g>
<g id="g-circle">
<circle id="p-circle" cx="161.5" cy="174.5" r="47.5" stroke="black" stroke-width="2"/>
</g>
<g id="g-me">
<g id="p-me">
<path d="M145 167V183.727H147.908V172.211H148.063L152.686 183.678H154.858L159.481 172.235H159.636V183.727H162.544V167H158.836L153.87 179.121H153.674L148.708 167H145Z" fill="black"/>
<path d="M171.382 183.972C174.306 183.972 176.315 182.543 176.838 180.362L174.077 180.052C173.677 181.114 172.697 181.669 171.423 181.669C169.512 181.669 168.246 180.411 168.221 178.263H176.961V177.357C176.961 172.954 174.314 171.018 171.227 171.018C167.633 171.018 165.289 173.657 165.289 177.528C165.289 181.465 167.6 183.972 171.382 183.972ZM168.229 176.27C168.319 174.669 169.503 173.322 171.268 173.322C172.967 173.322 174.11 174.563 174.126 176.27H168.229Z" fill="black"/>
</g>
</g>
<g id="g-fate">
<rect id="p-background" x="129" width="64" height="32" fill="white"/>
<g id="p-letter">
<path d="M139.666 23.5161H142.477V16.9252H148.924V14.5692H142.477V10.357H149.605V8.00098H139.666V23.5161Z" fill="black"/>
<path d="M155.396 23.751C157.222 23.751 158.312 22.8949 158.812 21.9176H158.903V23.5161H161.54V15.7282C161.54 12.6525 159.032 11.7282 156.812 11.7282C154.365 11.7282 152.487 12.8192 151.881 14.9404L154.441 15.304C154.714 14.5086 155.487 13.8267 156.828 13.8267C158.1 13.8267 158.797 14.4782 158.797 15.6222V15.6676C158.797 16.4555 157.972 16.4934 155.919 16.7131C153.661 16.9555 151.502 17.6298 151.502 20.251C151.502 22.5389 153.176 23.751 155.396 23.751ZM156.108 21.7358C154.964 21.7358 154.146 21.2131 154.146 20.2055C154.146 19.1525 155.062 18.7131 156.29 18.5389C157.009 18.4404 158.449 18.2586 158.805 17.9707V19.3419C158.805 20.6373 157.759 21.7358 156.108 21.7358Z" fill="black"/>
<path d="M170.215 11.8798H167.919V9.09189H165.177V11.8798H163.525V14.001H165.177V20.4707C165.162 22.6601 166.752 23.7358 168.813 23.6752C169.593 23.6525 170.131 23.501 170.427 23.4025L169.965 21.2586C169.813 21.2964 169.502 21.3646 169.162 21.3646C168.472 21.3646 167.919 21.1222 167.919 20.0161V14.001H170.215V11.8798Z" fill="black"/>
<path d="M177.641 23.7434C180.353 23.7434 182.217 22.4176 182.702 20.3949L180.141 20.107C179.77 21.0919 178.861 21.607 177.679 21.607C175.906 21.607 174.732 20.4404 174.709 18.4479H182.816V17.607C182.816 13.5237 180.361 11.7282 177.497 11.7282C174.164 11.7282 171.99 14.1752 171.99 17.7661C171.99 21.4176 174.134 23.7434 177.641 23.7434ZM174.717 16.5995C174.8 15.1146 175.899 13.8646 177.535 13.8646C179.111 13.8646 180.172 15.0161 180.187 16.5995H174.717Z" fill="black"/>
</g>
</g>
</g>
</svg>
