<svg width="256" height="267" viewBox="0 0 256 267" fill="none" xmlns="http://www.w3.org/2000/svg">
<g id="idas-fig-5">
<g id="g-engineering">
<path id="p-text" d="M140.544 208.217H150.061V206.008H143.179V202.038H149.514V199.829H143.179V195.88H150.004V193.671H140.544V208.217ZM155.25 201.825C155.25 200.248 156.202 199.339 157.558 199.339C158.886 199.339 159.682 200.213 159.682 201.669V208.217H162.253V201.271C162.26 198.657 160.768 197.166 158.517 197.166C156.883 197.166 155.761 197.947 155.264 199.161H155.136V197.308H152.679V208.217H155.25V201.825ZM169.711 212.535C172.658 212.535 174.831 211.186 174.831 208.394V197.308H172.296V199.112H172.154C171.763 198.323 170.946 197.166 169.022 197.166C166.5 197.166 164.519 199.14 164.519 202.727C164.519 206.285 166.5 208.061 169.015 208.061C170.883 208.061 171.756 207.059 172.154 206.257H172.282V208.323C172.282 209.928 171.216 210.589 169.753 210.589C168.205 210.589 167.523 209.857 167.211 209.218L164.895 209.779C165.364 211.306 166.934 212.535 169.711 212.535ZM169.732 206.044C168.035 206.044 167.14 204.722 167.14 202.713C167.14 200.731 168.02 199.275 169.732 199.275C171.387 199.275 172.296 200.646 172.296 202.713C172.296 204.794 171.373 206.044 169.732 206.044ZM177.566 208.217H180.137V197.308H177.566V208.217ZM178.859 195.759C179.676 195.759 180.343 195.134 180.343 194.367C180.343 193.593 179.676 192.968 178.859 192.968C178.035 192.968 177.367 193.593 177.367 194.367C177.367 195.134 178.035 195.759 178.859 195.759ZM185.452 201.825C185.452 200.248 186.404 199.339 187.76 199.339C189.089 199.339 189.884 200.213 189.884 201.669V208.217H192.455V201.271C192.462 198.657 190.971 197.166 188.719 197.166C187.086 197.166 185.964 197.947 185.466 199.161H185.339V197.308H182.881V208.217H185.452V201.825ZM199.998 208.43C202.541 208.43 204.288 207.187 204.743 205.291L202.342 205.021C201.994 205.944 201.142 206.427 200.034 206.427C198.372 206.427 197.271 205.333 197.25 203.465H204.849V202.677C204.849 198.849 202.548 197.166 199.863 197.166C196.738 197.166 194.7 199.46 194.7 202.826C194.7 206.249 196.71 208.43 199.998 208.43ZM197.257 201.732C197.335 200.34 198.365 199.169 199.899 199.169C201.376 199.169 202.37 200.248 202.385 201.732H197.257ZM211.954 208.43C214.496 208.43 216.243 207.187 216.698 205.291L214.297 205.021C213.949 205.944 213.097 206.427 211.989 206.427C210.327 206.427 209.226 205.333 209.205 203.465H216.805V202.677C216.805 198.849 214.503 197.166 211.819 197.166C208.694 197.166 206.655 199.46 206.655 202.826C206.655 206.249 208.665 208.43 211.954 208.43ZM209.212 201.732C209.29 200.34 210.32 199.169 211.854 199.169C213.332 199.169 214.326 200.248 214.34 201.732H209.212ZM219.08 208.217H221.651V201.803C221.651 200.419 222.695 199.438 224.108 199.438C224.541 199.438 225.081 199.517 225.301 199.588V197.222C225.067 197.18 224.662 197.151 224.378 197.151C223.128 197.151 222.084 197.862 221.686 199.126H221.573V197.308H219.08V208.217ZM227.109 208.217H229.68V197.308H227.109V208.217ZM228.402 195.759C229.219 195.759 229.886 195.134 229.886 194.367C229.886 193.593 229.219 192.968 228.402 192.968C227.578 192.968 226.91 193.593 226.91 194.367C226.91 195.134 227.578 195.759 228.402 195.759ZM234.995 201.825C234.995 200.248 235.947 199.339 237.303 199.339C238.632 199.339 239.427 200.213 239.427 201.669V208.217H241.998V201.271C242.005 198.657 240.514 197.166 238.262 197.166C236.629 197.166 235.507 197.947 235.009 199.161H234.882V197.308H232.424V208.217H234.995V201.825ZM249.456 212.535C252.403 212.535 254.577 211.186 254.577 208.394V197.308H252.041V199.112H251.899C251.509 198.323 250.692 197.166 248.767 197.166C246.246 197.166 244.264 199.14 244.264 202.727C244.264 206.285 246.246 208.061 248.76 208.061C250.628 208.061 251.501 207.059 251.899 206.257H252.027V208.323C252.027 209.928 250.962 210.589 249.499 210.589C247.95 210.589 247.268 209.857 246.956 209.218L244.641 209.779C245.109 211.306 246.679 212.535 249.456 212.535ZM249.477 206.044C247.78 206.044 246.885 204.722 246.885 202.713C246.885 200.731 247.766 199.275 249.477 199.275C251.132 199.275 252.041 200.646 252.041 202.713C252.041 204.794 251.118 206.044 249.477 206.044Z" fill="black"/>
</g>
<g id="g-design">
<path id="p-text_2" d="M6.50036 65C10.9322 65 13.56 62.2585 13.56 57.7131C13.56 53.1818 10.9322 50.4545 6.59979 50.4545H1.57138V65H6.50036ZM4.20632 62.7202V52.7344H6.45064C9.40518 52.7344 10.9464 54.3821 10.9464 57.7131C10.9464 61.0582 9.40518 62.7202 6.37251 62.7202H4.20632ZM20.8795 65.2131C23.4221 65.2131 25.1692 63.9702 25.6238 62.0739L23.2232 61.804C22.8752 62.7273 22.0229 63.2102 20.915 63.2102C19.2531 63.2102 18.1522 62.1165 18.1309 60.2486H25.7303V59.4602C25.7303 55.6321 23.4292 53.9489 20.7445 53.9489C17.6195 53.9489 15.5812 56.2429 15.5812 59.6094C15.5812 63.0327 17.5911 65.2131 20.8795 65.2131ZM18.138 58.5156C18.2161 57.1236 19.246 55.9517 20.78 55.9517C22.2573 55.9517 23.2516 57.0312 23.2658 58.5156H18.138ZM36.6276 56.9744C36.2724 55.1278 34.7952 53.9489 32.2384 53.9489C29.6105 53.9489 27.8207 55.2415 27.8278 57.2585C27.8207 58.8494 28.8009 59.9006 30.896 60.3338L32.7568 60.7244C33.7582 60.9446 34.227 61.3494 34.227 61.9673C34.227 62.7131 33.4173 63.2741 32.1957 63.2741C31.0168 63.2741 30.2497 62.7628 30.0295 61.7827L27.5224 62.0241C27.842 64.027 29.5253 65.2131 32.2028 65.2131C34.9301 65.2131 36.8548 63.7997 36.8619 61.733C36.8548 60.1776 35.8534 59.2259 33.7938 58.7784L31.933 58.3807C30.825 58.1321 30.3847 57.7486 30.3918 57.1165C30.3847 56.3778 31.2014 55.8665 32.2739 55.8665C33.4599 55.8665 34.0849 56.5128 34.2838 57.2301L36.6276 56.9744ZM39.082 65H41.653V54.0909H39.082V65ZM40.3746 52.5426C41.1913 52.5426 41.8589 51.9176 41.8589 51.1506C41.8589 50.3764 41.1913 49.7514 40.3746 49.7514C39.5507 49.7514 38.8831 50.3764 38.8831 51.1506C38.8831 51.9176 39.5507 52.5426 40.3746 52.5426ZM49.1411 69.3182C52.0886 69.3182 54.2619 67.9688 54.2619 65.1776V54.0909H51.7264V55.8949H51.5843C51.1937 55.1065 50.3769 53.9489 48.4522 53.9489C45.9309 53.9489 43.9494 55.9233 43.9494 59.5099C43.9494 63.0682 45.9309 64.8438 48.4451 64.8438C50.313 64.8438 51.1866 63.8423 51.5843 63.0398H51.7121V65.1065C51.7121 66.7116 50.6468 67.3722 49.1837 67.3722C47.6354 67.3722 46.9536 66.6406 46.6411 66.0014L44.3258 66.5625C44.7945 68.0895 46.3641 69.3182 49.1411 69.3182ZM49.1624 62.8267C47.465 62.8267 46.5701 61.5057 46.5701 59.4957C46.5701 57.5142 47.4508 56.0582 49.1624 56.0582C50.8173 56.0582 51.7264 57.429 51.7264 59.4957C51.7264 61.5767 50.8031 62.8267 49.1624 62.8267ZM59.5678 58.608C59.5678 57.0312 60.5195 56.1222 61.8761 56.1222C63.2042 56.1222 63.9996 56.9957 63.9996 58.4517V65H66.5707V58.054C66.5778 55.4403 65.0863 53.9489 62.8349 53.9489C61.2013 53.9489 60.0792 54.7301 59.582 55.9446H59.4542V54.0909H56.9968V65H59.5678V58.608Z" fill="black"/>
</g>
<g id="g-lines">
<path id="p-line1" d="M172.619 1L22.6192 260.808" stroke="black" stroke-width="1.8" stroke-linecap="round"/>
<path id="p-line2" d="M180.629 5.625L30.6289 265.433" stroke="black" stroke-width="1.8" stroke-linecap="round"/>
</g>
</g>
</svg>
