<svg width="705" height="109" viewBox="0 0 705 109" fill="none" xmlns="http://www.w3.org/2000/svg">
<g id="idas-fig-6">
<g id="g-slider">
<g id="g-line">
<path id="p-text1" d="M3.76193 20L4.96221 16.4134H10.431L11.6384 20H14.4509L9.32301 5.45455H6.07017L0.94943 20H3.76193ZM5.67244 14.2969L7.63977 8.4375H7.75341L9.72074 14.2969H5.67244ZM20.8506 20.2131C23.3932 20.2131 25.1403 18.9702 25.5949 17.0739L23.1943 16.804C22.8463 17.7273 21.994 18.2102 20.8861 18.2102C19.2241 18.2102 18.1233 17.1165 18.102 15.2486H25.7014V14.4602C25.7014 10.6321 23.4003 8.94886 20.7156 8.94886C17.5906 8.94886 15.5523 11.2429 15.5523 14.6094C15.5523 18.0327 17.5622 20.2131 20.8506 20.2131ZM18.1091 13.5156C18.1872 12.1236 19.217 10.9517 20.7511 10.9517C22.2284 10.9517 23.2227 12.0312 23.2369 13.5156H18.1091ZM36.5986 11.9744C36.2435 10.1278 34.7663 8.94886 32.2094 8.94886C29.5816 8.94886 27.7918 10.2415 27.7989 12.2585C27.7918 13.8494 28.7719 14.9006 30.8671 15.3338L32.7279 15.7244C33.7293 15.9446 34.1981 16.3494 34.1981 16.9673C34.1981 17.7131 33.3884 18.2741 32.1668 18.2741C30.9879 18.2741 30.2208 17.7628 30.0006 16.7827L27.4935 17.0241C27.8131 19.027 29.4964 20.2131 32.1739 20.2131C34.9012 20.2131 36.8259 18.7997 36.833 16.733C36.8259 15.1776 35.8245 14.2259 33.7648 13.7784L31.904 13.3807C30.7961 13.1321 30.3558 12.7486 30.3629 12.1165C30.3558 11.3778 31.1725 10.8665 32.245 10.8665C33.431 10.8665 34.056 11.5128 34.2549 12.2301L36.5986 11.9744ZM44.5005 9.09091H42.3485V6.47727H39.7775V9.09091H38.2292V11.0795H39.7775V17.1449C39.7633 19.1974 41.2548 20.206 43.1866 20.1491C43.9181 20.1278 44.4224 19.9858 44.6994 19.8935L44.2661 17.8835C44.1241 17.919 43.8329 17.983 43.5133 17.983C42.867 17.983 42.3485 17.7557 42.3485 16.7188V11.0795H44.5005V9.09091ZM49.5561 13.608C49.5561 12.0312 50.5362 11.1222 51.9141 11.1222C53.2635 11.1222 54.0589 11.9815 54.0589 13.4517V20H56.63V13.054C56.63 10.419 55.1385 8.94886 52.8729 8.94886C51.1967 8.94886 50.1314 9.70881 49.6271 10.9446H49.4993V5.45455H46.9851V20H49.5561V13.608ZM64.1803 20.2131C66.7229 20.2131 68.47 18.9702 68.9246 17.0739L66.524 16.804C66.176 17.7273 65.3237 18.2102 64.2158 18.2102C62.5538 18.2102 61.453 17.1165 61.4317 15.2486H69.0311V14.4602C69.0311 10.6321 66.73 8.94886 64.0453 8.94886C60.9203 8.94886 58.882 11.2429 58.882 14.6094C58.882 18.0327 60.8919 20.2131 64.1803 20.2131ZM61.4388 13.5156C61.5169 12.1236 62.5467 10.9517 64.0808 10.9517C65.5581 10.9517 66.5524 12.0312 66.5666 13.5156H61.4388ZM76.7536 9.09091H74.6016V6.47727H72.0306V9.09091H70.4823V11.0795H72.0306V17.1449C72.0164 19.1974 73.5079 20.206 75.4397 20.1491C76.1712 20.1278 76.6755 19.9858 76.9525 19.8935L76.5192 17.8835C76.3772 17.919 76.086 17.983 75.7664 17.983C75.1201 17.983 74.6016 17.7557 74.6016 16.7188V11.0795H76.7536V9.09091ZM79.0038 20H81.5749V9.09091H79.0038V20ZM80.2964 7.54261C81.1132 7.54261 81.7808 6.91761 81.7808 6.15057C81.7808 5.37642 81.1132 4.75142 80.2964 4.75142C79.4726 4.75142 78.805 5.37642 78.805 6.15057C78.805 6.91761 79.4726 7.54261 80.2964 7.54261ZM89.0772 20.2131C91.8187 20.2131 93.5658 18.5866 93.7505 16.2713H91.2931C91.0729 17.4432 90.2278 18.1179 89.0985 18.1179C87.4934 18.1179 86.4565 16.7756 86.4565 14.5455C86.4565 12.3438 87.5147 11.0227 89.0985 11.0227C90.3343 11.0227 91.0942 11.8182 91.2931 12.8693H93.7505C93.5729 10.5043 91.7264 8.94886 89.063 8.94886C85.867 8.94886 83.8499 11.2571 83.8499 14.5881C83.8499 17.8906 85.8173 20.2131 89.0772 20.2131Z" fill="black"/>
<rect id="p-line" x="111" y="12" width="461" height="2" fill="black"/>
<path id="p-text2" d="M589.544 20H599.061V17.7912H592.179V13.821H598.514V11.6122H592.179V7.66335H599.004V5.45455H589.544V20ZM604.25 13.608C604.25 12.0312 605.202 11.1222 606.558 11.1222C607.886 11.1222 608.682 11.9957 608.682 13.4517V20H611.253V13.054C611.26 10.4403 609.768 8.94886 607.517 8.94886C605.883 8.94886 604.761 9.73011 604.264 10.9446H604.136V9.09091H601.679V20H604.25V13.608ZM618.711 24.3182C621.658 24.3182 623.831 22.9688 623.831 20.1776V9.09091H621.296V10.8949H621.154C620.763 10.1065 619.946 8.94886 618.022 8.94886C615.5 8.94886 613.519 10.9233 613.519 14.5099C613.519 18.0682 615.5 19.8438 618.015 19.8438C619.883 19.8438 620.756 18.8423 621.154 18.0398H621.282V20.1065C621.282 21.7116 620.216 22.3722 618.753 22.3722C617.205 22.3722 616.523 21.6406 616.211 21.0014L613.895 21.5625C614.364 23.0895 615.934 24.3182 618.711 24.3182ZM618.732 17.8267C617.035 17.8267 616.14 16.5057 616.14 14.4957C616.14 12.5142 617.02 11.0582 618.732 11.0582C620.387 11.0582 621.296 12.429 621.296 14.4957C621.296 16.5767 620.373 17.8267 618.732 17.8267ZM626.566 20H629.137V9.09091H626.566V20ZM627.859 7.54261C628.676 7.54261 629.343 6.91761 629.343 6.15057C629.343 5.37642 628.676 4.75142 627.859 4.75142C627.035 4.75142 626.367 5.37642 626.367 6.15057C626.367 6.91761 627.035 7.54261 627.859 7.54261ZM634.452 13.608C634.452 12.0312 635.404 11.1222 636.76 11.1222C638.089 11.1222 638.884 11.9957 638.884 13.4517V20H641.455V13.054C641.462 10.4403 639.971 8.94886 637.719 8.94886C636.086 8.94886 634.964 9.73011 634.466 10.9446H634.339V9.09091H631.881V20H634.452V13.608ZM648.998 20.2131C651.541 20.2131 653.288 18.9702 653.743 17.0739L651.342 16.804C650.994 17.7273 650.142 18.2102 649.034 18.2102C647.372 18.2102 646.271 17.1165 646.25 15.2486H653.849V14.4602C653.849 10.6321 651.548 8.94886 648.863 8.94886C645.738 8.94886 643.7 11.2429 643.7 14.6094C643.7 18.0327 645.71 20.2131 648.998 20.2131ZM646.257 13.5156C646.335 12.1236 647.365 10.9517 648.899 10.9517C650.376 10.9517 651.37 12.0312 651.385 13.5156H646.257ZM660.954 20.2131C663.496 20.2131 665.243 18.9702 665.698 17.0739L663.297 16.804C662.949 17.7273 662.097 18.2102 660.989 18.2102C659.327 18.2102 658.226 17.1165 658.205 15.2486H665.805V14.4602C665.805 10.6321 663.503 8.94886 660.819 8.94886C657.694 8.94886 655.655 11.2429 655.655 14.6094C655.655 18.0327 657.665 20.2131 660.954 20.2131ZM658.212 13.5156C658.29 12.1236 659.32 10.9517 660.854 10.9517C662.332 10.9517 663.326 12.0312 663.34 13.5156H658.212ZM668.08 20H670.651V13.5866C670.651 12.2017 671.695 11.2216 673.108 11.2216C673.541 11.2216 674.081 11.2997 674.301 11.3707V9.00568C674.067 8.96307 673.662 8.93466 673.378 8.93466C672.128 8.93466 671.084 9.64489 670.686 10.9091H670.573V9.09091H668.08V20ZM676.109 20H678.68V9.09091H676.109V20ZM677.402 7.54261C678.219 7.54261 678.886 6.91761 678.886 6.15057C678.886 5.37642 678.219 4.75142 677.402 4.75142C676.578 4.75142 675.91 5.37642 675.91 6.15057C675.91 6.91761 676.578 7.54261 677.402 7.54261ZM683.995 13.608C683.995 12.0312 684.947 11.1222 686.303 11.1222C687.632 11.1222 688.427 11.9957 688.427 13.4517V20H690.998V13.054C691.005 10.4403 689.514 8.94886 687.262 8.94886C685.629 8.94886 684.507 9.73011 684.009 10.9446H683.882V9.09091H681.424V20H683.995V13.608ZM698.456 24.3182C701.403 24.3182 703.577 22.9688 703.577 20.1776V9.09091H701.041V10.8949H700.899C700.509 10.1065 699.692 8.94886 697.767 8.94886C695.246 8.94886 693.264 10.9233 693.264 14.5099C693.264 18.0682 695.246 19.8438 697.76 19.8438C699.628 19.8438 700.501 18.8423 700.899 18.0398H701.027V20.1065C701.027 21.7116 699.962 22.3722 698.499 22.3722C696.95 22.3722 696.268 21.6406 695.956 21.0014L693.641 21.5625C694.109 23.0895 695.679 24.3182 698.456 24.3182ZM698.477 17.8267C696.78 17.8267 695.885 16.5057 695.885 14.4957C695.885 12.5142 696.766 11.0582 698.477 11.0582C700.132 11.0582 701.041 12.429 701.041 14.4957C701.041 16.5767 700.118 17.8267 698.477 17.8267Z" fill="black"/>
</g>
<g id="g-frames">
<rect id="p-line1" x="131" width="2" height="26" fill="black"/>
<rect id="p-line2" x="172.801" width="2" height="26" fill="black"/>
<rect id="p-line3" x="214.6" width="2" height="26" fill="black"/>
<rect id="p-line4" x="256.4" width="2" height="26" fill="black"/>
<rect id="p-line5" x="298.199" width="2" height="26" fill="black"/>
<rect id="p-line6" x="340" width="2" height="26" fill="black"/>
<rect id="p-line7" x="381.801" width="2" height="26" fill="black"/>
<rect id="p-line8" x="423.6" width="2" height="26" fill="black"/>
<rect id="p-line9" x="465.4" width="2" height="26" fill="black"/>
<rect id="p-line10" x="507.199" width="2" height="26" fill="black"/>
<rect id="p-line11" x="549" width="2" height="26" fill="black"/>
</g>
</g>
<g id="g-text">
<path id="p-text" d="M304.75 101C310.512 101 313.928 97.4361 313.928 91.527C313.928 85.6364 310.512 82.0909 304.88 82.0909H298.343V101H304.75ZM301.768 98.0362V85.0547H304.686C308.527 85.0547 310.53 87.1967 310.53 91.527C310.53 95.8757 308.527 98.0362 304.584 98.0362H301.768ZM323.443 101.277C326.749 101.277 329.02 99.6612 329.611 97.196L326.49 96.8452C326.038 98.0455 324.93 98.6733 323.489 98.6733C321.329 98.6733 319.898 97.2514 319.87 94.8232H329.749V93.7983C329.749 88.8217 326.758 86.6335 323.268 86.6335C319.205 86.6335 316.556 89.6158 316.556 93.9922C316.556 98.4425 319.168 101.277 323.443 101.277ZM319.879 92.5703C319.981 90.7607 321.32 89.2372 323.314 89.2372C325.235 89.2372 326.527 90.6406 326.546 92.5703H319.879ZM343.916 90.5668C343.454 88.1662 341.534 86.6335 338.21 86.6335C334.794 86.6335 332.467 88.3139 332.476 90.9361C332.467 93.0043 333.741 94.3707 336.465 94.9339L338.884 95.4418C340.186 95.728 340.795 96.2543 340.795 97.0575C340.795 98.027 339.743 98.7564 338.154 98.7564C336.622 98.7564 335.625 98.0916 335.338 96.8175L332.079 97.1314C332.495 99.7351 334.683 101.277 338.164 101.277C341.709 101.277 344.211 99.4396 344.221 96.7528C344.211 94.7308 342.909 93.4936 340.232 92.9119L337.813 92.3949C336.372 92.0717 335.8 91.5732 335.809 90.7514C335.8 89.7912 336.862 89.1264 338.256 89.1264C339.798 89.1264 340.61 89.9666 340.869 90.8991L343.916 90.5668ZM347.107 101H350.449V86.8182H347.107V101ZM348.787 84.8054C349.849 84.8054 350.717 83.9929 350.717 82.9957C350.717 81.9893 349.849 81.1768 348.787 81.1768C347.716 81.1768 346.848 81.9893 346.848 82.9957C346.848 83.9929 347.716 84.8054 348.787 84.8054ZM360.183 106.614C364.015 106.614 366.84 104.859 366.84 101.231V86.8182H363.544V89.1634H363.36C362.852 88.1385 361.79 86.6335 359.288 86.6335C356.01 86.6335 353.434 89.2003 353.434 93.8629C353.434 98.4886 356.01 100.797 359.279 100.797C361.707 100.797 362.843 99.495 363.36 98.4517H363.526V101.138C363.526 103.225 362.141 104.084 360.239 104.084C358.226 104.084 357.34 103.133 356.933 102.302L353.924 103.031C354.533 105.016 356.573 106.614 360.183 106.614ZM360.211 98.1747C358.004 98.1747 356.841 96.4574 356.841 93.8445C356.841 91.2685 357.986 89.3757 360.211 89.3757C362.362 89.3757 363.544 91.1577 363.544 93.8445C363.544 96.5497 362.344 98.1747 360.211 98.1747ZM373.738 92.6903C373.738 90.6406 374.975 89.4588 376.739 89.4588C378.465 89.4588 379.5 90.5945 379.5 92.4872V101H382.842V91.9702C382.851 88.5724 380.912 86.6335 377.985 86.6335C375.862 86.6335 374.403 87.6491 373.757 89.228H373.59V86.8182H370.396V101H373.738V92.6903Z" fill="black"/>
<rect id="p-line_2" x="340" y="17" width="2" height="56" fill="black"/>
<circle id="p-circle" opacity="0.3" cx="341" cy="13" r="13" fill="#00FF00"/>
</g>
</g>
</svg>
