<svg width="354" height="322" viewBox="0 0 354 322" fill="none" xmlns="http://www.w3.org/2000/svg">
<g id="idas-fig-3">
<g id="g-fate">
<path id="p-border" d="M150.629 86.9556L150.629 86.956C150.548 87.5285 150.72 88.2584 151.152 89.1872C151.554 90.053 152.118 90.9616 152.722 91.9334C152.759 91.9925 152.795 92.0518 152.832 92.1113C153.458 93.1194 154.12 94.2012 154.557 95.2522C154.99 96.2944 155.271 97.4677 154.939 98.6112C154.604 99.7654 153.74 100.612 152.812 101.263C151.878 101.919 150.739 102.473 149.671 102.982C149.586 103.023 149.5 103.063 149.416 103.104C148.411 103.581 147.476 104.026 146.693 104.518C145.834 105.058 145.309 105.566 145.079 106.072C144.849 106.579 144.81 107.317 144.966 108.333C145.109 109.265 145.391 110.286 145.692 111.379C145.714 111.46 145.737 111.542 145.759 111.624C146.076 112.774 146.405 114.006 146.527 115.143C146.647 116.27 146.585 117.48 145.943 118.483C145.3 119.488 144.231 120.045 143.163 120.399C142.086 120.757 140.838 120.962 139.672 121.145C139.595 121.157 139.518 121.17 139.442 121.182C138.327 121.357 137.287 121.52 136.384 121.775C135.408 122.051 134.761 122.393 134.397 122.815C134.033 123.24 133.789 123.938 133.657 124.956C133.535 125.893 133.522 126.953 133.508 128.088C133.507 128.17 133.506 128.253 133.505 128.336C133.49 129.528 133.465 130.803 133.266 131.93C133.068 133.047 132.672 134.193 131.776 134.98C130.876 135.77 129.694 136.007 128.568 136.046C127.434 136.086 126.18 135.929 125.011 135.775C124.93 135.764 124.85 135.754 124.769 135.743C123.655 135.595 122.617 135.458 121.683 135.447C120.669 135.435 119.953 135.579 119.484 135.883C119.015 136.187 118.588 136.787 118.179 137.724C117.803 138.585 117.499 139.592 117.173 140.672C117.148 140.754 117.123 140.837 117.098 140.92C116.754 142.058 116.376 143.274 115.87 144.3C115.367 145.317 114.662 146.304 113.573 146.806C112.482 147.309 111.28 147.2 110.187 146.917C109.088 146.631 107.932 146.123 106.858 145.641C106.781 145.606 106.705 145.572 106.63 145.538C105.608 145.079 104.657 144.652 103.769 144.376C102.804 144.076 102.08 144.01 101.547 144.169C101.025 144.326 100.454 144.777 99.802 145.56C99.2104 146.271 98.6433 147.138 98.0346 148.069C97.9806 148.152 97.9263 148.235 97.8717 148.318C97.2206 149.312 96.5148 150.371 95.7373 151.21C94.9656 152.044 94.0092 152.79 92.8209 152.964L92.8189 152.964C91.6439 153.134 90.5298 152.679 89.5723 152.098C88.6056 151.511 87.6399 150.695 86.7415 149.927L86.6 149.806C85.7269 149.059 84.9108 148.362 84.1136 147.834C83.2635 147.271 82.5741 146.999 82.0048 146.999C81.4351 146.999 80.7452 147.271 79.8948 147.833C79.0975 148.36 78.2813 149.056 77.4081 149.801L77.2658 149.923C76.3669 150.689 75.4008 151.505 74.4338 152.091C73.476 152.671 72.362 153.124 71.1875 152.954C69.9987 152.784 69.0421 152.038 68.271 151.205C67.4937 150.365 66.788 149.306 66.137 148.312C66.0824 148.228 66.0282 148.145 65.9743 148.063C65.3654 147.131 64.7981 146.263 64.2061 145.552C63.5532 144.768 62.9817 144.316 62.4587 144.159C61.9206 144.001 61.1903 144.067 60.2219 144.366C59.3213 144.644 58.3558 145.075 57.3215 145.537C57.2548 145.567 57.1878 145.597 57.1206 145.627C56.0441 146.107 54.8882 146.615 53.7941 146.9C52.7094 147.183 51.5116 147.297 50.4311 146.795C49.3543 146.296 48.6576 145.307 48.1588 144.295C47.6549 143.271 47.2746 142.056 46.926 140.917C46.9033 140.843 46.8807 140.769 46.8583 140.695C46.525 139.605 46.2136 138.585 45.8317 137.717C45.4183 136.777 44.9887 136.176 44.5219 135.873C44.0572 135.571 43.343 135.427 42.3295 135.439C41.3967 135.45 40.3591 135.586 39.2456 135.733C39.1644 135.744 39.0828 135.755 39.0008 135.765C37.8314 135.919 36.5772 136.075 35.4428 136.035C34.3171 135.995 33.1345 135.759 32.2352 134.971C31.3378 134.185 30.9417 133.041 30.7444 131.926C30.5454 130.8 30.5207 129.527 30.5056 128.336C30.5046 128.255 30.5036 128.174 30.5026 128.094C30.4888 126.958 30.4758 125.897 30.3531 124.959C30.22 123.941 29.9756 123.242 29.6093 122.816C29.2443 122.391 28.597 122.05 27.6224 121.775C26.7232 121.522 25.6882 121.361 24.5773 121.187C24.4983 121.175 24.4189 121.163 24.3391 121.15C23.1747 120.968 21.9281 120.765 20.8504 120.406C19.7801 120.051 18.7119 119.491 18.0666 118.483C17.4218 117.476 17.3584 116.267 17.4794 115.14C17.6014 114.004 17.9331 112.777 18.251 111.63C18.2729 111.552 18.2947 111.473 18.3165 111.395C18.62 110.303 18.9035 109.283 19.0474 108.349C19.2034 107.336 19.1646 106.592 18.93 106.074C18.6963 105.558 18.1677 105.045 17.3087 104.504C16.517 104.006 15.5702 103.558 14.5539 103.077C14.4798 103.042 14.4052 103.007 14.3303 102.971C13.2631 102.466 12.1233 101.916 11.189 101.265C10.2605 100.617 9.39411 99.7749 9.05812 98.6217L9.05764 98.6201C8.72673 97.4771 9.0079 96.3043 9.44043 95.2622C9.87664 94.2113 10.5385 93.1296 11.1635 92.1213C11.2014 92.0602 11.2392 91.9993 11.2768 91.9387C11.8788 90.9686 12.4417 90.0613 12.8443 89.1966C13.2766 88.2679 13.4497 87.5374 13.3703 86.964C13.2928 86.4183 12.9334 85.785 12.2607 85.0241C11.6507 84.3342 10.8831 83.6461 10.0578 82.9063C9.98362 82.8398 9.90896 82.7729 9.8339 82.7055C8.95159 81.9134 8.0134 81.0567 7.30015 80.1586C6.59117 79.266 6 78.2058 6 77C6 75.7942 6.59113 74.7339 7.30003 73.841C8.01325 72.9427 8.9514 72.0855 9.83372 71.293C9.90881 71.2256 9.98352 71.1586 10.0578 71.092C10.883 70.3519 11.6506 69.6635 12.2605 68.9733C12.9336 68.2116 13.2931 67.5779 13.3704 67.0319C13.4511 66.4591 13.279 65.7289 12.8469 64.8C12.4439 63.9339 11.8795 63.0251 11.2759 62.053C11.2395 61.9943 11.2029 61.9354 11.1661 61.8762C10.5408 60.8683 9.8783 59.7869 9.44157 58.7365C9.00862 57.6952 8.72661 56.5228 9.05758 55.3801C9.39184 54.2246 10.2566 53.3776 11.1852 52.7254C12.1197 52.0692 13.2595 51.5153 14.3274 51.0069C14.4138 50.9657 14.4997 50.9249 14.5851 50.8843C15.589 50.4073 16.5237 49.9631 17.3065 49.4715C18.1665 48.9314 18.6913 48.4237 18.9209 47.9184C19.151 47.4117 19.1902 46.6736 19.034 45.6576C18.8907 44.7249 18.6094 43.7041 18.3081 42.6112C18.2858 42.5301 18.2633 42.4485 18.2408 42.3666C17.9244 41.2162 17.5947 39.9844 17.4733 38.847C17.353 37.7204 17.4148 36.5104 18.0569 35.507C18.6998 34.5027 19.7682 33.9456 20.8365 33.591C21.9135 33.2335 23.1605 33.0286 24.3259 32.845C24.4031 32.8328 24.48 32.8207 24.5565 32.8087C25.6713 32.6336 26.7106 32.4703 27.6128 32.215C28.5889 31.9389 29.2361 31.5978 29.5995 31.1748C29.9639 30.7506 30.2073 30.0528 30.3397 29.0358C30.4614 28.1012 30.4743 27.0443 30.488 25.9119C30.4891 25.8281 30.4901 25.744 30.4912 25.6594C30.5063 24.4682 30.5313 23.1943 30.7313 22.0678C30.9295 20.9511 31.327 19.8063 32.2254 19.019C33.1261 18.2296 34.3088 17.9935 35.435 17.9542C36.5693 17.9146 37.8228 18.0717 38.9913 18.2262C39.0716 18.2369 39.1516 18.2475 39.2311 18.258C40.3456 18.406 41.384 18.5439 42.3181 18.5547C43.3308 18.5665 44.0469 18.4222 44.5152 18.1178C44.9847 17.8127 45.4123 17.2122 45.8213 16.2744C46.1965 15.4142 46.5006 14.4072 46.8266 13.3275C46.8515 13.245 46.8766 13.1621 46.9018 13.0788C47.2462 11.9405 47.6237 10.725 48.1305 9.69982C48.6333 8.68266 49.3377 7.6958 50.4272 7.1937C51.5183 6.69094 52.7204 6.7999 53.8126 7.0833C54.9119 7.36853 56.0679 7.87727 57.1424 8.35926C57.2188 8.39356 57.2949 8.42773 57.3706 8.46172C58.3924 8.92076 59.3435 9.34804 60.2313 9.62426C61.1954 9.92418 61.9191 9.98947 62.4521 9.83144C62.9755 9.67388 63.5471 9.22286 64.2 8.43945C64.7927 7.72825 65.3606 6.85965 65.9702 5.92731C66.0234 5.84599 66.0769 5.76419 66.1307 5.68197C66.7817 4.68794 67.4873 3.62954 68.2643 2.78972C69.0354 1.95635 69.9913 1.21001 71.1789 1.03609L71.1812 1.03576C72.3567 0.86634 73.4713 1.32036 74.4293 1.90164C75.3965 2.48847 76.3624 3.30518 77.2609 4.07304C77.3093 4.11437 77.3575 4.15557 77.4055 4.19663C78.2775 4.94222 79.0924 5.63905 79.8884 6.16637C80.7382 6.72937 81.4269 7.00129 81.9952 7.00129C82.5635 7.00129 83.2524 6.72933 84.1026 6.16629C84.8991 5.63872 85.7148 4.94146 86.5873 4.19551C86.6349 4.1548 86.6827 4.11395 86.7307 4.07297C87.6294 3.30513 88.5954 2.48847 89.5623 1.90168C90.52 1.32052 91.6343 0.866276 92.8093 1.03579C93.9986 1.20666 94.9557 1.95213 95.7274 2.78518C96.5052 3.62482 97.2111 4.68379 97.8622 5.67854C97.9176 5.76322 97.9727 5.84746 98.0274 5.93118C98.6353 6.8616 99.2017 7.72844 99.7927 8.43864C100.445 9.22247 101.015 9.67347 101.537 9.83115C102.076 9.98931 102.808 9.92325 103.777 9.62443C104.678 9.34646 105.645 8.91473 106.679 8.4523C106.746 8.42277 106.812 8.39311 106.879 8.36336C107.955 7.88295 109.111 7.37554 110.204 7.09006C111.289 6.80702 112.486 6.69319 113.566 7.19505C114.642 7.69508 115.338 8.68362 115.836 9.69596C116.34 10.7189 116.72 11.9342 117.068 13.0734C117.091 13.1458 117.113 13.2179 117.135 13.2897C117.468 14.3823 117.78 15.4034 118.163 16.2732C118.577 17.2131 119.007 17.8141 119.474 18.1174C119.939 18.4188 120.654 18.5617 121.669 18.548C122.603 18.5354 123.642 18.396 124.758 18.2465C124.839 18.2356 124.92 18.2247 125.001 18.2138C126.172 18.0574 127.428 17.8986 128.563 17.9363C129.69 17.9738 130.874 18.2075 131.774 18.9961C132.672 19.7823 133.068 20.9267 133.265 22.0421C133.464 23.1676 133.489 24.441 133.504 25.632C133.505 25.7139 133.506 25.7955 133.507 25.8767C133.52 27.0118 133.533 28.0719 133.655 29.0092C133.788 30.0268 134.032 30.7263 134.398 31.1525C134.762 31.5767 135.408 31.9173 136.383 32.1921C137.283 32.4457 138.318 32.607 139.43 32.7802C139.509 32.7924 139.588 32.8048 139.668 32.8172C140.833 32.9993 142.08 33.2029 143.158 33.561C144.229 33.9167 145.298 34.4761 145.943 35.4843C146.588 36.4916 146.651 37.7006 146.53 38.8274C146.408 39.9634 146.075 41.1914 145.757 42.3376C145.736 42.4154 145.714 42.4928 145.693 42.5699C145.389 43.6634 145.105 44.6847 144.961 45.62C144.805 46.6334 144.844 47.3774 145.079 47.8964C145.314 48.4141 145.843 48.9271 146.701 49.4674C147.489 49.9644 148.432 50.4109 149.444 50.8903C149.521 50.9265 149.597 50.9628 149.675 50.9994C150.74 51.5048 151.878 52.0548 152.812 52.7076C153.739 53.3564 154.603 54.2 154.938 55.3544M150.629 86.9556L150.63 67.0092C150.55 66.4367 150.723 65.7068 151.156 64.7782C151.558 63.9152 152.121 63.01 152.722 62.042C152.761 61.9795 152.8 61.9167 152.839 61.8537C153.465 60.8456 154.128 59.7638 154.563 58.7127C154.995 57.6708 155.275 56.4975 154.938 55.3544M150.629 86.9556C150.707 86.4096 151.066 85.7759 151.739 85.0144M150.629 86.9556L151.739 85.0144M154.938 55.3544C154.938 55.3538 154.938 55.3532 154.938 55.3526L153.979 55.6353L154.939 55.3566C154.939 55.3558 154.939 55.3551 154.938 55.3544ZM151.739 85.0144C152.349 84.3245 153.117 83.6364 153.942 82.8968M151.739 85.0144L153.942 82.8968M153.942 82.8968C154.016 82.8302 154.091 82.7632 154.166 82.6958M153.942 82.8968L154.166 82.6958M154.166 82.6958C155.048 81.9037 155.987 81.0469 156.7 80.1489M154.166 82.6958L156.7 80.1489M156.7 80.1489C157.409 79.2563 158 78.1961 158 76.9903M156.7 80.1489L158 76.9903M158 76.9903C158 75.7839 157.409 74.7232 156.7 73.8298M158 76.9903L156.7 73.8298M156.7 73.8298C155.987 72.9312 155.049 72.0737 154.167 71.2807M156.7 73.8298L154.167 71.2807M154.167 71.2807C154.093 71.2147 154.02 71.1491 153.947 71.0839M154.167 71.2807L153.947 71.0839M153.947 71.0839C153.121 70.3417 152.351 69.6511 151.74 68.9584M153.947 71.0839L151.74 68.9584M151.74 68.9584C151.068 68.1959 150.707 67.5598 150.63 67.0101L151.74 68.9584Z" stroke="black" stroke-width="2" stroke-miterlimit="10"/>
<g id="p-text">
<path d="M59 85.7273H62.0302V78.6214H68.9808V76.0813H62.0302V71.5401H69.7159V69H59V85.7273Z" fill="black"/>
<path d="M75.9587 85.9805C77.9271 85.9805 79.1032 85.0575 79.6423 84.0039H79.7403V85.7273H82.5826V77.331C82.5826 74.0149 79.8791 73.0185 77.486 73.0185C74.8479 73.0185 72.8223 74.1946 72.1689 76.4815L74.9295 76.8736C75.2236 76.016 76.0567 75.2809 77.5023 75.2809C78.8745 75.2809 79.6259 75.9833 79.6259 77.2166V77.2656C79.6259 78.1151 78.7356 78.1559 76.5222 78.3928C74.0883 78.6541 71.7605 79.381 71.7605 82.207C71.7605 84.6737 73.5656 85.9805 75.9587 85.9805ZM76.7264 83.8079C75.4931 83.8079 74.611 83.2443 74.611 82.158C74.611 81.0227 75.5993 80.549 76.9224 80.3611C77.6984 80.255 79.2502 80.0589 79.6341 79.7486V81.2269C79.6341 82.6236 78.507 83.8079 76.7264 83.8079Z" fill="black"/>
<path d="M91.9352 73.1818H89.4604V70.1761H86.5037V73.1818H84.7232V75.4688H86.5037V82.4439C86.4874 84.8043 88.2026 85.9641 90.4242 85.8988C91.2654 85.8743 91.8453 85.7109 92.1639 85.6048L91.6656 83.2933C91.5023 83.3342 91.1674 83.4077 90.7999 83.4077C90.0566 83.4077 89.4604 83.1463 89.4604 81.9538V75.4688H91.9352V73.1818Z" fill="black"/>
<path d="M99.9421 85.9723C102.866 85.9723 104.875 84.543 105.398 82.3622L102.637 82.0518C102.237 83.1136 101.257 83.669 99.983 83.669C98.0717 83.669 96.8058 82.4112 96.7813 80.2631H105.521V79.3565C105.521 74.9542 102.874 73.0185 99.7869 73.0185C96.1932 73.0185 93.8491 75.6566 93.8491 79.5281C93.8491 83.4648 96.1605 85.9723 99.9421 85.9723ZM96.7894 78.2702C96.8793 76.6694 98.0636 75.3217 99.8278 75.3217C101.527 75.3217 102.67 76.5632 102.686 78.2702H96.7894Z" fill="black"/>
</g>
</g>
<g id="g-me">
<circle id="p-border_2" cx="272" cy="77" r="76" stroke="black" stroke-width="2"/>
<g id="p-text_2">
<path d="M256 69V85.7273H258.908V74.2109H259.063L263.686 85.6783H265.858L270.481 74.2354H270.636V85.7273H273.544V69H269.836L264.87 81.1207H264.674L259.708 69H256Z" fill="black"/>
<path d="M282.382 85.9723C285.306 85.9723 287.315 84.543 287.838 82.3622L285.077 82.0518C284.677 83.1136 283.697 83.669 282.423 83.669C280.512 83.669 279.246 82.4112 279.221 80.2631H287.961V79.3565C287.961 74.9542 285.314 73.0185 282.227 73.0185C278.633 73.0185 276.289 75.6566 276.289 79.5281C276.289 83.4648 278.6 85.9723 282.382 85.9723ZM279.229 78.2702C279.319 76.6694 280.503 75.3217 282.268 75.3217C283.967 75.3217 285.11 76.5632 285.126 78.2702H279.229Z" fill="black"/>
</g>
</g>
<g id="g-line1">
<path id="p-line" d="M83 174C83 173.448 82.5523 173 82 173C81.4477 173 81 173.448 81 174L83 174ZM81.2929 234.707C81.6834 235.098 82.3166 235.098 82.7071 234.707L89.0711 228.343C89.4616 227.953 89.4616 227.319 89.0711 226.929C88.6805 226.538 88.0474 226.538 87.6569 226.929L82 232.586L76.3431 226.929C75.9526 226.538 75.3195 226.538 74.9289 226.929C74.5384 227.319 74.5384 227.953 74.9289 228.343L81.2929 234.707ZM81 174L81 234L83 234L83 174L81 174Z" fill="black"/>
</g>
<g id="g-line2">
<path id="p-line_2" d="M274 174C274 173.448 273.552 173 273 173C272.448 173 272 173.448 272 174L274 174ZM272.293 234.707C272.683 235.098 273.317 235.098 273.707 234.707L280.071 228.343C280.462 227.953 280.462 227.319 280.071 226.929C279.681 226.538 279.047 226.538 278.657 226.929L273 232.586L267.343 226.929C266.953 226.538 266.319 226.538 265.929 226.929C265.538 227.319 265.538 227.953 265.929 228.343L272.293 234.707ZM272 174L272 234L274 234L274 174L272 174Z" fill="black"/>
</g>
<g id="g-box">
<g id="p-mylife">
<path d="M126 284.298H128.455V282.543C128.446 281.222 128.957 280.156 129.622 279.151L128.19 278.222C126.946 279.236 125.992 281.051 126 282.56V284.298ZM130.321 284.298H132.776V282.543C132.767 281.222 133.278 280.156 133.943 279.151L132.511 278.222C131.267 279.236 130.313 281.051 130.321 282.56V284.298Z" fill="black"/>
<path d="M136.369 278.844V296.298H139.403V284.281H139.565L144.389 296.247H146.656L151.479 284.307H151.641V296.298H154.675V278.844H150.806L145.624 291.491H145.42L140.238 278.844H136.369Z" fill="black"/>
<path d="M160.02 301.207C162.423 301.207 163.813 299.972 164.554 297.884L169.812 283.224L166.514 283.207L163.489 293.094H163.352L160.335 283.207H157.062L161.81 296.571L161.545 297.278C160.974 298.77 160.071 298.872 158.724 298.48L158.009 300.884C158.426 301.054 159.176 301.207 160.02 301.207Z" fill="black"/>
<path d="M178.283 296.298H189.133V293.648H181.445V278.844H178.283V296.298Z" fill="black"/>
<path d="M191.861 296.298H194.946V283.207H191.861V296.298ZM193.412 281.349C194.392 281.349 195.193 280.599 195.193 279.679C195.193 278.75 194.392 278 193.412 278C192.423 278 191.622 278.75 191.622 279.679C191.622 280.599 192.423 281.349 193.412 281.349Z" fill="black"/>
<path d="M204.869 283.207H202.15V282.176C202.15 281.153 202.577 280.582 203.727 280.582C204.213 280.582 204.622 280.693 204.878 280.77L205.5 278.384C205.099 278.247 204.221 278.026 203.156 278.026C200.881 278.026 199.065 279.33 199.065 281.972V283.207H197.131V285.594H199.065V296.298H202.15V285.594H204.869V283.207Z" fill="black"/>
<path d="M212.709 296.554C215.76 296.554 217.856 295.063 218.402 292.787L215.521 292.463C215.104 293.571 214.081 294.151 212.751 294.151C210.757 294.151 209.436 292.838 209.41 290.597H218.53V289.651C218.53 285.057 215.768 283.037 212.547 283.037C208.797 283.037 206.351 285.79 206.351 289.83C206.351 293.938 208.763 296.554 212.709 296.554ZM209.419 288.517C209.513 286.847 210.748 285.44 212.589 285.44C214.362 285.44 215.555 286.736 215.572 288.517H209.419Z" fill="black"/>
<path d="M223.876 278.844H221.422V280.599C221.422 281.989 220.876 283.054 220.254 283.991L221.686 284.92C222.939 283.881 223.876 282.091 223.876 280.582V278.844ZM228.189 278.844H225.734V280.599C225.734 281.989 225.189 283.054 224.567 283.991L225.998 284.92C227.251 283.881 228.189 282.091 228.189 280.582V278.844Z" fill="black"/>
</g>
<rect id="p-rect" x="1" y="255" width="352" height="66" stroke="black" stroke-width="2"/>
</g>
</g>
</svg>
