<svg width="292" height="303" viewBox="0 0 292 303" fill="none" xmlns="http://www.w3.org/2000/svg">
<g id="idas-fig-1">
<g id="g-border">
<path id="p-border" d="M291 156.856C291 163.615 277.689 169.344 276.769 175.852C275.825 182.517 286.998 191.785 285.159 198.117C283.294 204.556 268.921 206.275 266.193 212.281C263.465 218.287 271.549 230.48 267.995 236.034C264.44 241.587 250.148 239.171 245.835 244.192C241.522 249.212 245.928 263.15 240.957 267.518C235.985 271.885 222.979 265.484 217.417 269.093C211.855 272.701 212.278 287.292 206.232 290.078C200.185 292.864 189.59 282.993 183.239 284.882C176.975 286.765 173.246 300.859 166.641 301.826C160.203 302.754 152.708 290.273 146.009 290.273C139.31 290.273 131.81 302.736 125.372 301.807C118.772 300.859 115.044 286.746 108.774 284.863C102.398 282.98 91.7155 292.814 85.7809 290.059C79.8463 287.304 80.1321 272.67 74.5952 269.074C69.0584 265.478 56.0333 271.854 51.0619 267.499C46.0905 263.144 50.5026 249.225 46.1775 244.192C41.8524 239.159 27.6032 241.625 24.0238 236.034C20.4444 230.442 28.5788 218.368 25.8259 212.287C23.073 206.206 8.70567 204.556 6.83518 198.136C5.00198 191.804 16.1565 182.535 15.2306 175.871C14.3109 169.363 1 163.634 1 156.875C1 150.116 14.3109 144.381 15.2306 137.873C16.169 131.208 5.00198 121.94 6.83518 115.614C8.69945 109.169 23.0792 107.456 25.8073 101.45C28.5353 95.4445 20.4506 83.2513 24.0051 77.6975C27.5597 72.1437 41.8462 74.5598 46.1589 69.5394C50.4716 64.519 46.0595 50.6 51.0433 46.2323C56.0271 41.8646 69.0211 48.2718 74.5828 44.6572C80.1446 41.0425 79.722 26.4583 85.7685 23.672C91.8149 20.8857 102.41 30.757 108.761 28.8681C115.031 26.9855 118.76 12.8908 125.359 11.9244C131.804 10.9956 139.298 23.4775 145.991 23.4775C152.683 23.4775 160.184 10.9956 166.622 11.9244C173.228 12.872 176.956 26.9855 183.22 28.8681C189.602 30.7508 200.285 20.9171 206.213 23.672C212.141 26.427 211.855 41.0613 217.399 44.6572C222.942 48.253 235.985 41.8332 240.957 46.1884C245.928 50.5436 241.516 64.4626 245.835 69.4955C250.154 74.5284 264.415 72.0621 267.995 77.6536C271.574 83.245 263.434 95.319 266.193 101.406C268.952 107.493 283.288 109.125 285.159 115.57C287.023 121.896 275.837 131.164 276.769 137.829C277.689 144.362 291 150.091 291 156.856Z" stroke="black" stroke-width="2" stroke-miterlimit="10"/>
</g>
<g id="g-me">
<g id="Me">
<path d="M129 147.875V165.615H132.093V153.401H132.258L137.176 165.563H139.487L144.405 153.427H144.57V165.615H147.664V147.875H143.719L138.436 160.73H138.228L132.945 147.875H129Z" fill="black"/>
<path d="M157.066 165.875C160.176 165.875 162.314 164.359 162.87 162.046L159.933 161.717C159.507 162.843 158.464 163.432 157.109 163.432C155.076 163.432 153.729 162.098 153.703 159.82H163V158.859C163 154.19 160.185 152.137 156.9 152.137C153.077 152.137 150.584 154.935 150.584 159.041C150.584 163.216 153.043 165.875 157.066 165.875ZM153.712 157.707C153.807 156.009 155.067 154.58 156.944 154.58C158.751 154.58 159.968 155.896 159.985 157.707H153.712Z" fill="black"/>
</g>
</g>
<g id="g-fate">
<rect id="p-background" x="114" width="64" height="32" fill="white"/>
<g id="p-letter">
<path d="M124.666 23.5161H127.477V16.9252H133.924V14.5692H127.477V10.357H134.605V8.00098H124.666V23.5161Z" fill="black"/>
<path d="M140.396 23.751C142.222 23.751 143.312 22.8949 143.812 21.9176H143.903V23.5161H146.54V15.7282C146.54 12.6525 144.032 11.7282 141.812 11.7282C139.365 11.7282 137.487 12.8192 136.881 14.9404L139.441 15.304C139.714 14.5086 140.487 13.8267 141.828 13.8267C143.1 13.8267 143.797 14.4782 143.797 15.6222V15.6676C143.797 16.4555 142.972 16.4934 140.919 16.7131C138.661 16.9555 136.502 17.6298 136.502 20.251C136.502 22.5389 138.176 23.751 140.396 23.751ZM141.108 21.7358C139.964 21.7358 139.146 21.2131 139.146 20.2055C139.146 19.1525 140.062 18.7131 141.29 18.5389C142.009 18.4404 143.449 18.2586 143.805 17.9707V19.3419C143.805 20.6373 142.759 21.7358 141.108 21.7358Z" fill="black"/>
<path d="M155.215 11.8798H152.919V9.09189H150.177V11.8798H148.525V14.001H150.177V20.4707C150.162 22.6601 151.752 23.7358 153.813 23.6752C154.593 23.6525 155.131 23.501 155.427 23.4025L154.965 21.2586C154.813 21.2964 154.502 21.3646 154.162 21.3646C153.472 21.3646 152.919 21.1222 152.919 20.0161V14.001H155.215V11.8798Z" fill="black"/>
<path d="M162.641 23.7434C165.353 23.7434 167.217 22.4176 167.702 20.3949L165.141 20.107C164.77 21.0919 163.861 21.607 162.679 21.607C160.906 21.607 159.732 20.4404 159.709 18.4479H167.816V17.607C167.816 13.5237 165.361 11.7282 162.497 11.7282C159.164 11.7282 156.99 14.1752 156.99 17.7661C156.99 21.4176 159.134 23.7434 162.641 23.7434ZM159.717 16.5995C159.8 15.1146 160.899 13.8646 162.535 13.8646C164.111 13.8646 165.172 15.0161 165.187 16.5995H159.717Z" fill="black"/>
</g>
</g>
<g id="g-arrows">
<path id="p-line1" d="M143.883 115.274C144.273 115.665 144.906 115.665 145.297 115.274L151.661 108.91C152.051 108.52 152.051 107.887 151.661 107.496C151.27 107.106 150.637 107.106 150.247 107.496L144.59 113.153L138.933 107.496C138.542 107.106 137.909 107.106 137.519 107.496C137.128 107.887 137.128 108.52 137.519 108.91L143.883 115.274ZM143.59 46.875L143.59 114.567L145.59 114.567L145.59 46.875L143.59 46.875Z" fill="black"/>
<path id="p-line2" d="M187.601 156.168C187.211 156.558 187.211 157.192 187.601 157.582L193.965 163.946C194.356 164.337 194.989 164.337 195.38 163.946C195.77 163.556 195.77 162.922 195.38 162.532L189.723 156.875L195.38 151.218C195.77 150.828 195.77 150.194 195.38 149.804C194.989 149.413 194.356 149.413 193.965 149.804L187.601 156.168ZM188.309 157.875H256.001L256.001 155.875H188.309L188.309 157.875Z" fill="black"/>
<path id="p-line3" d="M145.297 198.476C144.906 198.085 144.273 198.085 143.883 198.476L137.519 204.839C137.128 205.23 137.128 205.863 137.519 206.254C137.909 206.644 138.542 206.644 138.933 206.254L144.59 200.597L150.247 206.254C150.637 206.644 151.27 206.644 151.661 206.254C152.051 205.863 152.051 205.23 151.661 204.839L145.297 198.476ZM143.59 199.183L143.59 266.875L145.59 266.875L145.59 199.183L143.59 199.183Z" fill="black"/>
<path id="p-line4" d="M104.399 157.582C104.79 157.192 104.79 156.558 104.399 156.168L98.0355 149.804C97.6449 149.413 97.0118 149.413 96.6212 149.804C96.2307 150.194 96.2307 150.828 96.6212 151.218L102.278 156.875L96.6212 162.532C96.2307 162.922 96.2307 163.556 96.6212 163.946C97.0118 164.337 97.6449 164.337 98.0355 163.946L104.399 157.582ZM36 157.875L103.692 157.875V155.875L36 155.875V157.875Z" fill="black"/>
</g>
</g>
</svg>
