<svg width="350" height="284" viewBox="0 0 350 284" fill="none" xmlns="http://www.w3.org/2000/svg">
<g id="idas-fig-4">
<g id="g-diagram">
<path id="g-intersect" opacity="0.3" fill-rule="evenodd" clip-rule="evenodd" d="M175 181.345C158.253 163.465 148 139.43 148 113C148 86.5699 158.253 62.5348 174.999 44.6553C191.746 62.5348 201.999 86.57 201.999 113C201.999 139.43 191.746 163.465 175 181.345Z" fill="#00FF00"/>
<g id="g-circles">
<circle id="p-circle1" cx="102" cy="113" r="101" stroke="black" stroke-width="2"/>
<circle id="p-circle2" cx="248" cy="113" r="101" stroke="black" stroke-width="2"/>
</g>
</g>
<g id="g-arrow">
<path id="p-line" d="M175.9 113C175.9 112.503 175.497 112.1 175 112.1C174.503 112.1 174.1 112.503 174.1 113L175.9 113ZM174.364 244.636C174.715 244.988 175.285 244.988 175.636 244.636L181.364 238.909C181.715 238.557 181.715 237.988 181.364 237.636C181.012 237.285 180.443 237.285 180.091 237.636L175 242.727L169.909 237.636C169.557 237.285 168.988 237.285 168.636 237.636C168.285 237.988 168.285 238.557 168.636 238.909L174.364 244.636ZM174.1 113L174.1 244L175.9 244L175.9 113L174.1 113Z" fill="black"/>
</g>
<g id="g-beauty">
<g id="p-text">
<path d="M132 278H139.654C143.984 278 146.108 275.793 146.108 272.848C146.108 269.986 144.077 268.305 142.064 268.204V268.019C143.911 267.585 145.369 266.293 145.369 263.994C145.369 261.177 143.338 259.091 139.239 259.091H132V278ZM135.425 275.138V269.598H139.202C141.316 269.598 142.627 270.891 142.627 272.58C142.627 274.085 141.593 275.138 139.109 275.138H135.425ZM135.425 267.133V261.916H138.888C140.901 261.916 141.944 262.978 141.944 264.437C141.944 266.099 140.596 267.133 138.814 267.133H135.425Z" fill="black"/>
<path d="M155.349 278.277C158.654 278.277 160.925 276.661 161.516 274.196L158.395 273.845C157.943 275.045 156.835 275.673 155.395 275.673C153.234 275.673 151.803 274.251 151.775 271.823H161.655V270.798C161.655 265.822 158.663 263.633 155.173 263.633C151.111 263.633 148.461 266.616 148.461 270.992C148.461 275.442 151.074 278.277 155.349 278.277ZM151.785 269.57C151.886 267.761 153.225 266.237 155.219 266.237C157.14 266.237 158.432 267.641 158.451 269.57H151.785Z" fill="black"/>
<path d="M168.693 278.286C170.918 278.286 172.248 277.243 172.857 276.052H172.968V278H176.181V268.508C176.181 264.76 173.125 263.633 170.42 263.633C167.438 263.633 165.148 264.963 164.409 267.548L167.53 267.991C167.862 267.022 168.804 266.191 170.438 266.191C171.989 266.191 172.839 266.985 172.839 268.379V268.435C172.839 269.395 171.832 269.441 169.33 269.709C166.579 270.004 163.947 270.826 163.947 274.021C163.947 276.809 165.988 278.286 168.693 278.286ZM169.561 275.83C168.167 275.83 167.17 275.193 167.17 273.965C167.17 272.682 168.287 272.146 169.783 271.934C170.66 271.814 172.414 271.592 172.848 271.241V272.913C172.848 274.491 171.574 275.83 169.561 275.83Z" fill="black"/>
<path d="M188.711 272.035C188.711 274.196 187.169 275.267 185.692 275.267C184.085 275.267 183.014 274.131 183.014 272.331V263.818H179.672V272.848C179.672 276.255 181.611 278.185 184.399 278.185C186.523 278.185 188.019 277.067 188.665 275.479H188.813V278H192.053V263.818H188.711V272.035Z" fill="black"/>
<path d="M202.702 263.818H199.904V260.42H196.562V263.818H194.549V266.403H196.562V274.288C196.544 276.957 198.483 278.268 200.994 278.194C201.945 278.166 202.6 277.981 202.961 277.861L202.397 275.248C202.213 275.295 201.834 275.378 201.419 275.378C200.578 275.378 199.904 275.082 199.904 273.734V266.403H202.702V263.818Z" fill="black"/>
<path d="M207.705 283.318C210.308 283.318 211.813 281.979 212.617 279.717L218.313 263.837L214.74 263.818L211.463 274.528H211.315L208.046 263.818H204.501L209.644 278.295L209.357 279.062C208.739 280.677 207.76 280.788 206.301 280.364L205.526 282.967C205.978 283.152 206.791 283.318 207.705 283.318Z" fill="black"/>
</g>
</g>
<g id="g-aesthectic">
<rect id="p-background" x="38" width="112" height="38" fill="white"/>
<path id="Aesthetic" d="M50.7619 26L51.9622 22.4134H57.431L58.6384 26H61.4509L56.323 11.4545H53.0702L47.9494 26H50.7619ZM52.6724 20.2969L54.6398 14.4375H54.7534L56.7207 20.2969H52.6724ZM67.8506 26.2131C70.3932 26.2131 72.1403 24.9702 72.5949 23.0739L70.1943 22.804C69.8463 23.7273 68.994 24.2102 67.8861 24.2102C66.2241 24.2102 65.1233 23.1165 65.102 21.2486H72.7014V20.4602C72.7014 16.6321 70.4003 14.9489 67.7156 14.9489C64.5906 14.9489 62.5523 17.2429 62.5523 20.6094C62.5523 24.0327 64.5622 26.2131 67.8506 26.2131ZM65.1091 19.5156C65.1872 18.1236 66.217 16.9517 67.7511 16.9517C69.2284 16.9517 70.2227 18.0312 70.2369 19.5156H65.1091ZM83.5986 17.9744C83.2435 16.1278 81.7663 14.9489 79.2094 14.9489C76.5816 14.9489 74.7918 16.2415 74.7989 18.2585C74.7918 19.8494 75.7719 20.9006 77.8671 21.3338L79.7279 21.7244C80.7293 21.9446 81.1981 22.3494 81.1981 22.9673C81.1981 23.7131 80.3884 24.2741 79.1668 24.2741C77.9879 24.2741 77.2208 23.7628 77.0006 22.7827L74.4935 23.0241C74.8131 25.027 76.4964 26.2131 79.1739 26.2131C81.9012 26.2131 83.8259 24.7997 83.833 22.733C83.8259 21.1776 82.8245 20.2259 80.7648 19.7784L78.904 19.3807C77.7961 19.1321 77.3558 18.7486 77.3629 18.1165C77.3558 17.3778 78.1725 16.8665 79.245 16.8665C80.431 16.8665 81.056 17.5128 81.2549 18.2301L83.5986 17.9744ZM91.5005 15.0909H89.3485V12.4773H86.7775V15.0909H85.2292V17.0795H86.7775V23.1449C86.7633 25.1974 88.2548 26.206 90.1866 26.1491C90.9181 26.1278 91.4224 25.9858 91.6994 25.8935L91.2661 23.8835C91.1241 23.919 90.8329 23.983 90.5133 23.983C89.867 23.983 89.3485 23.7557 89.3485 22.7188V17.0795H91.5005V15.0909ZM96.5561 19.608C96.5561 18.0312 97.5362 17.1222 98.9141 17.1222C100.263 17.1222 101.059 17.9815 101.059 19.4517V26H103.63V19.054C103.63 16.419 102.138 14.9489 99.8729 14.9489C98.1967 14.9489 97.1314 15.7088 96.6271 16.9446H96.4993V11.4545H93.9851V26H96.5561V19.608ZM111.18 26.2131C113.723 26.2131 115.47 24.9702 115.925 23.0739L113.524 22.804C113.176 23.7273 112.324 24.2102 111.216 24.2102C109.554 24.2102 108.453 23.1165 108.432 21.2486H116.031V20.4602C116.031 16.6321 113.73 14.9489 111.045 14.9489C107.92 14.9489 105.882 17.2429 105.882 20.6094C105.882 24.0327 107.892 26.2131 111.18 26.2131ZM108.439 19.5156C108.517 18.1236 109.547 16.9517 111.081 16.9517C112.558 16.9517 113.552 18.0312 113.567 19.5156H108.439ZM123.754 15.0909H121.602V12.4773H119.031V15.0909H117.482V17.0795H119.031V23.1449C119.016 25.1974 120.508 26.206 122.44 26.1491C123.171 26.1278 123.675 25.9858 123.952 25.8935L123.519 23.8835C123.377 23.919 123.086 23.983 122.766 23.983C122.12 23.983 121.602 23.7557 121.602 22.7188V17.0795H123.754V15.0909ZM126.004 26H128.575V15.0909H126.004V26ZM127.296 13.5426C128.113 13.5426 128.781 12.9176 128.781 12.1506C128.781 11.3764 128.113 10.7514 127.296 10.7514C126.473 10.7514 125.805 11.3764 125.805 12.1506C125.805 12.9176 126.473 13.5426 127.296 13.5426ZM136.077 26.2131C138.819 26.2131 140.566 24.5866 140.75 22.2713H138.293C138.073 23.4432 137.228 24.1179 136.099 24.1179C134.493 24.1179 133.456 22.7756 133.456 20.5455C133.456 18.3438 134.515 17.0227 136.099 17.0227C137.334 17.0227 138.094 17.8182 138.293 18.8693H140.75C140.573 16.5043 138.726 14.9489 136.063 14.9489C132.867 14.9489 130.85 17.2571 130.85 20.5881C130.85 23.8906 132.817 26.2131 136.077 26.2131Z" fill="black"/>
</g>
<g id="g-value">
<rect id="p-background_2" x="210" width="74" height="38" fill="white"/>
<path id="p-text_2" d="M222.659 11.4545H219.769L224.889 26H228.142L233.27 11.4545H230.372L226.594 22.9034H226.445L222.659 11.4545ZM237.159 26.2202C238.871 26.2202 239.893 25.4176 240.362 24.5014H240.447V26H242.919V18.6989C242.919 15.8153 240.568 14.9489 238.487 14.9489C236.193 14.9489 234.432 15.9716 233.864 17.9602L236.264 18.3011C236.52 17.5554 237.244 16.9162 238.501 16.9162C239.695 16.9162 240.348 17.527 240.348 18.5994V18.642C240.348 19.3807 239.574 19.4162 237.649 19.6222C235.533 19.8494 233.508 20.4815 233.508 22.9389C233.508 25.0838 235.078 26.2202 237.159 26.2202ZM237.827 24.331C236.754 24.331 235.987 23.8409 235.987 22.8963C235.987 21.9091 236.847 21.4972 237.997 21.3338C238.672 21.2415 240.021 21.071 240.355 20.8011V22.0866C240.355 23.3011 239.375 24.331 237.827 24.331ZM248.175 11.4545H245.604V26H248.175V11.4545ZM257.872 21.4119C257.872 23.0739 256.686 23.8977 255.55 23.8977C254.314 23.8977 253.49 23.0241 253.49 21.6392V15.0909H250.919V22.0369C250.919 24.6577 252.411 26.142 254.555 26.142C256.189 26.142 257.34 25.2827 257.837 24.0611H257.95V26H260.443V15.0909H257.872V21.4119ZM268.017 26.2131C270.559 26.2131 272.306 24.9702 272.761 23.0739L270.36 22.804C270.012 23.7273 269.16 24.2102 268.052 24.2102C266.39 24.2102 265.289 23.1165 265.268 21.2486H272.867V20.4602C272.867 16.6321 270.566 14.9489 267.882 14.9489C264.757 14.9489 262.718 17.2429 262.718 20.6094C262.718 24.0327 264.728 26.2131 268.017 26.2131ZM265.275 19.5156C265.353 18.1236 266.383 16.9517 267.917 16.9517C269.394 16.9517 270.389 18.0312 270.403 19.5156H265.275Z" fill="black"/>
</g>
</g>
</svg>
